# xmcd
#
# Track frame offsets: 
#        150
#        16500
#        30499
#        43030
#        56905
#        69430
#        81748
#        94254
#        103504
#        117154
#        131741
#        144028
#
# Disc length: 2134 seconds
#
# Revision: 0
# Processed by: cddbd v1.5.2PL0 Copyright (c) Steve Scherf et al.
# Submitted via: ExactAudioCopy v0.95b4
#
DISCID=9c08540c
DTITLE=Svata Kotas band - Lands of Endless Joy
DYEAR=2007
DGENRE=Bluegrass
TTITLE0=The Roads
TTITLE1=Leave Me...
TTITLE2=Searcher for Nothing
TTITLE3=Searcher for Nothing
TTITLE4=Late Summer
TTITLE5=Silwer Town
TTITLE6=Burry Me Beneath the Willow
TTITLE7=Autumn Rain
TTITLE8=Something to Say
TTITLE9=Robin's Pub
TTITLE10=Have You Ever Seen the Rain
TTITLE11=Song for Me
EXTD=
EXTT0=
EXTT1=
EXTT2=
EXTT3=
EXTT4=
EXTT5=
EXTT6=
EXTT7=
EXTT8=
EXTT9=
EXTT10=
EXTT11=
PLAYORDER=
